<svg xmlns="http://www.w3.org/2000/svg" xmlns:xlink="http://www.w3.org/1999/xlink" width="64" zoomAndPan="magnify" viewBox="0 0 48 48" height="64" preserveAspectRatio="xMidYMid meet" version="1.0"><defs><clipPath id="dc1c0da152"><path d="M 1.027344 0.539062 L 47 0.539062 L 47 46.824219 L 1.027344 46.824219 Z M 1.027344 0.539062 " clip-rule="nonzero"/></clipPath></defs><g clip-path="url(#dc1c0da152)"><path fill="#ffffff" d="M 46.101562 21.464844 L 26.046875 1.40625 C 25.769531 1.128906 25.449219 0.914062 25.085938 0.765625 C 24.722656 0.613281 24.34375 0.539062 23.953125 0.539062 C 23.5625 0.539062 23.183594 0.613281 22.820312 0.765625 C 22.457031 0.914062 22.140625 1.128906 21.863281 1.40625 L 17.699219 5.570312 L 22.980469 10.851562 C 24.210938 10.421875 25.617188 10.714844 26.597656 11.695312 C 27.070312 12.171875 27.386719 12.738281 27.535156 13.394531 C 27.6875 14.050781 27.652344 14.695312 27.429688 15.332031 L 32.523438 20.425781 C 33.753906 20 35.175781 20.273438 36.160156 21.257812 C 36.488281 21.589844 36.746094 21.972656 36.921875 22.402344 C 37.101562 22.832031 37.191406 23.28125 37.191406 23.75 C 37.191406 24.21875 37.101562 24.667969 36.921875 25.097656 C 36.746094 25.53125 36.488281 25.910156 36.160156 26.242188 C 35.828125 26.570312 35.449219 26.824219 35.015625 27.003906 C 34.585938 27.183594 34.136719 27.273438 33.667969 27.273438 C 33.203125 27.269531 32.753906 27.183594 32.320312 27.003906 C 31.890625 26.824219 31.507812 26.570312 31.179688 26.238281 C 30.144531 25.203125 29.890625 23.683594 30.414062 22.410156 L 25.664062 17.660156 L 25.664062 30.15625 C 26.011719 30.328125 26.320312 30.550781 26.597656 30.824219 C 26.925781 31.152344 27.179688 31.535156 27.359375 31.964844 C 27.539062 32.398438 27.628906 32.847656 27.628906 33.3125 C 27.628906 33.78125 27.539062 34.230469 27.359375 34.660156 C 27.179688 35.09375 26.925781 35.472656 26.597656 35.804688 C 26.265625 36.132812 25.886719 36.386719 25.453125 36.566406 C 25.023438 36.746094 24.574219 36.835938 24.105469 36.835938 C 23.640625 36.835938 23.191406 36.746094 22.757812 36.566406 C 22.328125 36.386719 21.949219 36.132812 21.617188 35.804688 C 21.285156 35.472656 21.03125 35.09375 20.851562 34.660156 C 20.675781 34.230469 20.585938 33.78125 20.585938 33.3125 C 20.585938 32.847656 20.675781 32.398438 20.851562 31.964844 C 21.03125 31.535156 21.285156 31.152344 21.617188 30.824219 C 21.957031 30.484375 22.335938 30.226562 22.769531 30.054688 L 22.769531 17.441406 C 22.351562 17.269531 21.957031 17.015625 21.617188 16.675781 C 21.371094 16.425781 21.164062 16.148438 21 15.839844 C 20.835938 15.535156 20.71875 15.207031 20.652344 14.863281 C 20.585938 14.523438 20.570312 14.175781 20.605469 13.828125 C 20.640625 13.480469 20.722656 13.148438 20.859375 12.824219 L 15.648438 7.617188 L 1.894531 21.355469 C 1.617188 21.632812 1.402344 21.953125 1.253906 22.316406 C 1.101562 22.679688 1.027344 23.054688 1.027344 23.449219 C 1.027344 23.839844 1.101562 24.21875 1.253906 24.582031 C 1.402344 24.945312 1.617188 25.261719 1.894531 25.539062 L 21.953125 45.597656 C 22.230469 45.875 22.550781 46.089844 22.914062 46.238281 C 23.277344 46.390625 23.652344 46.464844 24.046875 46.464844 C 24.4375 46.464844 24.816406 46.390625 25.175781 46.238281 C 25.539062 46.089844 25.859375 45.875 26.136719 45.597656 L 46.101562 25.664062 C 46.378906 25.386719 46.59375 25.066406 46.746094 24.703125 C 46.894531 24.339844 46.96875 23.964844 46.96875 23.570312 C 46.96875 23.179688 46.894531 22.800781 46.746094 22.4375 C 46.59375 22.074219 46.378906 21.753906 46.101562 21.476562 " fill-opacity="1" fill-rule="nonzero"/></g></svg>