<svg xmlns="http://www.w3.org/2000/svg" xmlns:xlink="http://www.w3.org/1999/xlink" width="64" zoomAndPan="magnify" viewBox="0 0 48 48" height="64" preserveAspectRatio="xMidYMid meet" version="1.0"><defs><clipPath id="92507166d4"><path d="M 1 2 L 46 2 L 46 45.492188 L 1 45.492188 Z M 1 2 " clip-rule="nonzero"/></clipPath></defs><g clip-path="url(#92507166d4)"><path fill="#ffffff" d="M 21.089844 2.6875 C 11.121094 3.792969 3 11.835938 1.796875 21.789062 C 1.640625 23.042969 1.59375 24.300781 1.652344 25.558594 C 1.710938 26.820312 1.878906 28.066406 2.152344 29.300781 C 2.429688 30.53125 2.804688 31.730469 3.285156 32.898438 C 3.765625 34.066406 4.34375 35.183594 5.015625 36.253906 C 5.6875 37.320312 6.445312 38.324219 7.289062 39.261719 C 8.136719 40.199219 9.054688 41.058594 10.046875 41.839844 C 11.039062 42.621094 12.089844 43.308594 13.203125 43.910156 C 14.3125 44.507812 15.46875 45.007812 16.664062 45.410156 C 17.765625 45.585938 18.117188 44.90625 18.117188 44.3125 L 18.117188 40.597656 C 12.027344 41.917969 10.730469 37.652344 10.730469 37.652344 C 9.722656 35.101562 8.289062 34.417969 8.289062 34.417969 C 6.289062 33.054688 8.445312 33.101562 8.445312 33.101562 C 10.644531 33.257812 11.808594 35.367188 11.808594 35.367188 C 13.722656 38.707031 16.953125 37.71875 18.203125 37.191406 C 18.402344 35.761719 18.984375 34.792969 19.589844 34.242188 C 14.703125 33.695312 9.585938 31.804688 9.585938 23.429688 C 9.585938 20.988281 10.421875 19.03125 11.851562 17.472656 C 11.632812 16.921875 10.859375 14.636719 12.070312 11.667969 C 12.070312 11.667969 13.917969 11.074219 18.117188 13.910156 C 21.777344 12.925781 25.441406 12.925781 29.105469 13.910156 C 33.308594 11.074219 35.152344 11.667969 35.152344 11.667969 C 36.359375 14.636719 35.589844 16.921875 35.371094 17.472656 C 36.800781 19.027344 37.636719 20.988281 37.636719 23.429688 C 37.636719 31.824219 32.492188 33.671875 27.589844 34.222656 C 28.378906 34.902344 29.105469 36.246094 29.105469 38.289062 L 29.105469 44.3125 C 29.105469 44.90625 29.457031 45.609375 30.578125 45.410156 C 31.21875 45.199219 31.84375 44.953125 32.460938 44.683594 C 33.074219 44.414062 33.675781 44.113281 34.265625 43.789062 C 34.851562 43.460938 35.425781 43.109375 35.980469 42.730469 C 36.535156 42.351562 37.074219 41.949219 37.589844 41.519531 C 38.109375 41.09375 38.609375 40.640625 39.085938 40.167969 C 39.5625 39.695312 40.019531 39.199219 40.449219 38.683594 C 40.882812 38.167969 41.289062 37.636719 41.671875 37.082031 C 42.054688 36.53125 42.414062 35.960938 42.742188 35.375 C 43.074219 34.789062 43.378906 34.191406 43.652344 33.578125 C 43.929688 32.964844 44.175781 32.339844 44.394531 31.703125 C 44.613281 31.066406 44.804688 30.421875 44.964844 29.769531 C 45.121094 29.117188 45.253906 28.457031 45.351562 27.792969 C 45.449219 27.125 45.519531 26.457031 45.558594 25.785156 C 45.59375 25.117188 45.601562 24.445312 45.578125 23.773438 C 45.554688 23.097656 45.5 22.429688 45.414062 21.761719 C 45.328125 21.097656 45.214844 20.433594 45.070312 19.777344 C 44.921875 19.121094 44.746094 18.472656 44.542969 17.832031 C 44.335938 17.191406 44.101562 16.5625 43.839844 15.941406 C 43.578125 15.324219 43.285156 14.71875 42.96875 14.125 C 42.648438 13.535156 42.304688 12.957031 41.933594 12.398438 C 41.5625 11.835938 41.164062 11.292969 40.742188 10.769531 C 40.324219 10.246094 39.878906 9.742188 39.410156 9.257812 C 38.945312 8.773438 38.457031 8.3125 37.945312 7.875 C 37.4375 7.433594 36.90625 7.019531 36.359375 6.628906 C 35.8125 6.238281 35.25 5.875 34.667969 5.535156 C 34.085938 5.199219 33.492188 4.886719 32.882812 4.601562 C 32.273438 4.320312 31.652344 4.0625 31.015625 3.835938 C 30.382812 3.609375 29.742188 3.410156 29.089844 3.242188 C 28.441406 3.074219 27.78125 2.9375 27.117188 2.828125 C 26.457031 2.722656 25.789062 2.644531 25.117188 2.597656 C 24.445312 2.550781 23.773438 2.535156 23.101562 2.550781 C 22.429688 2.566406 21.757812 2.609375 21.089844 2.6875 Z M 21.089844 2.6875 " fill-opacity="1" fill-rule="nonzero"/></g></svg>