<svg xmlns="http://www.w3.org/2000/svg" xmlns:xlink="http://www.w3.org/1999/xlink" width="64" zoomAndPan="magnify" viewBox="0 0 48 48" height="64" preserveAspectRatio="xMidYMid meet" version="1.0"><defs><clipPath id="c2d822993e"><path d="M 13 34 L 22 34 L 22 45.84375 L 13 45.84375 Z M 13 34 " clip-rule="nonzero"/></clipPath><clipPath id="0f81fb57ae"><path d="M 41 31.152344 L 47 31.152344 L 47 44 L 41 44 Z M 41 31.152344 " clip-rule="nonzero"/></clipPath><clipPath id="a3113019c9"><path d="M 1 31.152344 L 14 31.152344 L 14 44 L 1 44 Z M 1 31.152344 " clip-rule="nonzero"/></clipPath><clipPath id="2f0592709d"><path d="M 30 31.152344 L 40 31.152344 L 40 45 L 30 45 Z M 30 31.152344 " clip-rule="nonzero"/></clipPath><clipPath id="7286589727"><path d="M 22 31.152344 L 30 31.152344 L 30 44 L 22 44 Z M 22 31.152344 " clip-rule="nonzero"/></clipPath><clipPath id="740d9eef95"><path d="M 30 31.152344 L 47.507812 31.152344 L 47.507812 33 L 30 33 Z M 30 31.152344 " clip-rule="nonzero"/></clipPath><clipPath id="c20e7a11d4"><path d="M 6.21875 0 L 38.546875 0 L 38.546875 31.296875 L 6.21875 31.296875 Z M 6.21875 0 " clip-rule="nonzero"/></clipPath></defs><g clip-path="url(#c2d822993e)"><path fill="#ffffff" d="M 14.757812 44.789062 C 14.457031 44.789062 14.191406 44.769531 13.964844 44.734375 L 13.964844 45.730469 C 14.429688 45.917969 14.8125 46.007812 15.128906 46.007812 C 16.308594 46.007812 17.394531 45.289062 18.382812 43.84375 C 19.652344 41.972656 20.675781 38.96875 21.453125 34.839844 L 19.640625 34.839844 C 19.320312 37.375 18.746094 39.722656 17.925781 41.871094 C 17.984375 41.441406 17.839844 40.683594 17.503906 39.601562 L 16.007812 34.839844 L 14.136719 34.839844 L 16.222656 41.210938 C 16.539062 42.167969 16.695312 42.804688 16.695312 43.117188 C 16.695312 43.566406 16.492188 43.976562 16.089844 44.339844 C 15.75 44.636719 15.308594 44.789062 14.757812 44.789062 Z M 14.757812 44.789062 " fill-opacity="1" fill-rule="nonzero"/></g><g clip-path="url(#0f81fb57ae)"><path fill="#ffffff" d="M 41.390625 31.910156 L 41.390625 43.078125 L 46.796875 43.078125 L 46.796875 41.703125 L 43.210938 41.703125 L 43.210938 31.910156 Z M 41.390625 31.910156 " fill-opacity="1" fill-rule="nonzero"/></g><g clip-path="url(#a3113019c9)"><path fill="#ffffff" d="M 3.464844 34.171875 L 3.484375 34.171875 L 6.363281 43.078125 L 7.8125 43.078125 L 10.714844 34.171875 L 10.730469 34.171875 C 11.03125 36.957031 11.222656 39.921875 11.285156 43.078125 L 13.199219 43.078125 C 13.105469 39.703125 12.816406 35.980469 12.316406 31.910156 L 10.066406 31.910156 L 7.296875 40.117188 L 7.277344 40.117188 L 4.535156 31.910156 L 2.167969 31.910156 C 1.71875 35.382812 1.4375 39.109375 1.324219 43.078125 L 3.0625 43.078125 C 3.117188 39.8125 3.253906 36.84375 3.464844 34.171875 Z M 3.464844 34.171875 " fill-opacity="1" fill-rule="nonzero"/></g><g clip-path="url(#2f0592709d)"><path fill="#ffffff" d="M 39.738281 37.285156 C 39.738281 33.59375 38.261719 31.742188 35.304688 31.742188 C 33.859375 31.742188 32.726562 32.210938 31.914062 33.148438 C 31.027344 34.175781 30.585938 35.683594 30.585938 37.679688 C 30.585938 39.640625 30.976562 41.082031 31.765625 42 C 32.484375 42.828125 33.570312 43.242188 35.019531 43.242188 C 35.5625 43.242188 36.0625 43.175781 36.511719 43.046875 L 39.238281 44.605469 L 39.976562 43.351562 L 39.96875 43.351562 L 37.882812 42.339844 C 38.066406 42.1875 38.246094 42.023438 38.40625 41.835938 C 39.296875 40.8125 39.738281 39.292969 39.738281 37.285156 Z M 35.207031 41.859375 C 34.292969 41.859375 33.625 41.523438 33.195312 40.851562 L 33.199219 40.839844 C 32.738281 40.117188 32.507812 38.941406 32.507812 37.335938 C 32.507812 34.523438 33.378906 33.117188 35.121094 33.117188 C 36.03125 33.117188 36.703125 33.453125 37.128906 34.125 C 37.589844 34.855469 37.820312 36.015625 37.820312 37.605469 C 37.820312 40.441406 36.949219 41.859375 35.207031 41.859375 Z M 35.207031 41.859375 " fill-opacity="1" fill-rule="nonzero"/></g><g clip-path="url(#7286589727)"><path fill="#ffffff" d="M 28.472656 37.632812 C 28.472656 37.632812 26.839844 36.710938 26.03125 36.277344 C 25.140625 35.792969 24.660156 35.222656 24.660156 34.5625 C 24.660156 34.132812 24.855469 33.777344 25.171875 33.503906 C 25.484375 33.222656 25.933594 33.089844 26.515625 33.089844 C 27.234375 33.089844 27.964844 33.246094 28.703125 33.554688 L 29.140625 32.59375 C 28.277344 32.039062 27.316406 31.765625 26.261719 31.765625 C 25.234375 31.765625 24.402344 32.042969 23.753906 32.601562 C 23.109375 33.160156 22.785156 33.882812 22.785156 34.792969 C 22.785156 35.886719 23.21875 36.550781 24.085938 37.171875 C 24.085938 37.171875 25.679688 38.066406 26.476562 38.496094 C 27.335938 38.972656 27.8125 39.539062 27.8125 40.203125 C 27.8125 40.730469 27.582031 41.148438 27.195312 41.445312 C 26.804688 41.742188 26.265625 41.890625 25.582031 41.890625 C 24.847656 41.890625 24.039062 41.671875 23.136719 41.226562 L 22.648438 42.1875 C 23.695312 42.882812 24.765625 43.230469 25.882812 43.230469 C 27.078125 43.230469 28.023438 42.925781 28.730469 42.320312 C 29.4375 41.714844 29.792969 40.9375 29.792969 39.984375 L 29.804688 39.992188 C 29.804688 38.902344 29.363281 38.246094 28.472656 37.632812 Z M 28.472656 37.632812 " fill-opacity="1" fill-rule="nonzero"/></g><g clip-path="url(#740d9eef95)"><path fill="#ffffff" d="M 50.054688 31.722656 C 49.65625 31.195312 49.160156 30.738281 48.625 30.355469 C 48.183594 30.0625 47.222656 29.648438 47.039062 29.15625 L 47.015625 29.128906 C 47.3125 29.101562 47.671875 28.992188 47.960938 28.914062 C 48.425781 28.792969 48.855469 28.820312 49.335938 28.699219 C 49.554688 28.644531 49.777344 28.578125 49.996094 28.511719 L 49.996094 28.390625 C 49.75 28.148438 49.5625 27.816406 49.308594 27.589844 C 48.609375 26.996094 47.835938 26.417969 47.039062 25.929688 C 46.605469 25.660156 46.058594 25.484375 45.605469 25.253906 C 45.441406 25.175781 45.164062 25.132812 45.070312 25 C 44.824219 24.703125 44.679688 24.3125 44.503906 23.960938 C 44.109375 23.21875 43.722656 22.394531 43.378906 21.609375 C 43.132812 21.082031 42.984375 20.554688 42.679688 20.070312 C 41.261719 17.777344 39.726562 16.382812 37.363281 15.023438 C 36.855469 14.742188 36.246094 14.621094 35.601562 14.472656 C 35.257812 14.453125 34.914062 14.429688 34.574219 14.414062 C 34.347656 14.320312 34.128906 14.0625 33.9375 13.941406 C 33.15625 13.457031 31.132812 12.40625 30.554688 13.792969 C 30.1875 14.671875 31.105469 15.535156 31.425781 15.976562 C 31.660156 16.285156 31.957031 16.640625 32.125 16.988281 C 32.21875 17.222656 32.246094 17.464844 32.34375 17.707031 C 32.5625 18.300781 32.769531 18.960938 33.058594 19.519531 C 33.207031 19.800781 33.371094 20.101562 33.566406 20.351562 C 33.675781 20.5 33.863281 20.570312 33.90625 20.8125 C 33.714844 21.085938 33.703125 21.484375 33.589844 21.820312 C 33.097656 23.347656 33.292969 25.238281 33.992188 26.363281 C 34.210938 26.699219 34.734375 27.441406 35.4375 27.15625 C 36.054688 26.914062 35.917969 26.148438 36.09375 25.472656 C 36.136719 25.308594 36.109375 25.203125 36.191406 25.09375 L 36.191406 25.125 C 36.386719 25.503906 36.578125 25.863281 36.757812 26.246094 C 37.179688 26.90625 37.921875 27.59375 38.539062 28.050781 C 38.867188 28.292969 39.128906 28.714844 39.539062 28.863281 L 39.539062 28.824219 L 39.511719 28.824219 C 39.421875 28.707031 39.304688 28.652344 39.191406 28.554688 C 38.945312 28.3125 38.667969 28.015625 38.472656 27.746094 C 37.898438 26.984375 37.390625 26.148438 36.9375 25.285156 C 36.710938 24.863281 36.523438 24.40625 36.339844 23.988281 C 36.257812 23.828125 36.257812 23.585938 36.121094 23.503906 C 35.914062 23.796875 35.613281 24.054688 35.460938 24.417969 C 35.203125 25 35.175781 25.714844 35.078125 26.457031 C 35.019531 26.472656 35.046875 26.457031 35.019531 26.488281 C 34.582031 26.382812 34.429688 25.933594 34.265625 25.558594 C 33.855469 24.597656 33.785156 23.058594 34.144531 21.953125 C 34.238281 21.671875 34.652344 20.777344 34.484375 20.507812 C 34.398438 20.25 34.128906 20.105469 33.976562 19.894531 C 33.800781 19.644531 33.609375 19.320312 33.484375 19.035156 C 33.15625 18.28125 32.992188 17.441406 32.632812 16.6875 C 32.46875 16.339844 32.179688 15.972656 31.945312 15.652344 C 31.683594 15.289062 31.398438 15.03125 31.191406 14.601562 C 31.121094 14.453125 31.023438 14.207031 31.132812 14.046875 C 31.164062 13.9375 31.21875 13.894531 31.328125 13.867188 C 31.507812 13.71875 32.015625 13.910156 32.195312 13.992188 C 32.703125 14.195312 33.128906 14.382812 33.554688 14.667969 C 33.75 14.800781 33.957031 15.054688 34.203125 15.121094 L 34.492188 15.121094 C 34.933594 15.21875 35.429688 15.152344 35.839844 15.269531 C 36.570312 15.5 37.226562 15.835938 37.816406 16.199219 C 39.617188 17.324219 41.101562 18.914062 42.105469 20.816406 C 42.269531 21.125 42.339844 21.410156 42.492188 21.734375 C 42.78125 22.402344 43.136719 23.074219 43.425781 23.71875 C 43.714844 24.351562 43.992188 25.003906 44.40625 25.527344 C 44.613281 25.808594 45.4375 25.957031 45.808594 26.105469 C 46.082031 26.226562 46.507812 26.339844 46.753906 26.488281 C 47.226562 26.769531 47.6875 27.09375 48.132812 27.402344 C 48.359375 27.558594 49.042969 27.894531 49.085938 28.167969 C 47.984375 28.136719 47.132812 28.246094 46.417969 28.546875 C 46.210938 28.628906 45.882812 28.628906 45.855469 28.886719 C 45.96875 28.992188 45.984375 29.167969 46.082031 29.316406 C 46.246094 29.585938 46.527344 29.949219 46.792969 30.140625 C 47.078125 30.363281 47.367188 30.574219 47.671875 30.765625 C 48.203125 31.085938 48.8125 31.277344 49.335938 31.605469 C 49.632812 31.792969 49.9375 32.035156 50.242188 32.234375 C 50.390625 32.335938 50.488281 32.519531 50.679688 32.582031 L 50.679688 32.542969 C 50.585938 32.421875 50.558594 32.246094 50.464844 32.113281 C 50.328125 31.976562 50.1875 31.855469 50.054688 31.722656 Z M 50.054688 31.722656 " fill-opacity="1" fill-rule="nonzero"/></g><g clip-path="url(#c20e7a11d4)"><path fill="#ffffff" d="M 35.902344 24.082031 C 34.175781 24.035156 32.839844 24.210938 31.71875 24.683594 C 31.398438 24.8125 30.878906 24.8125 30.835938 25.21875 C 31.011719 25.390625 31.03125 25.667969 31.183594 25.902344 C 31.441406 26.332031 31.894531 26.910156 32.300781 27.210938 L 33.679688 28.195312 C 34.519531 28.707031 35.46875 29.007812 36.289062 29.523438 C 36.761719 29.820312 37.234375 30.207031 37.710938 30.527344 C 37.953125 30.699219 38.097656 30.980469 38.398438 31.085938 L 38.398438 31.019531 C 38.25 30.828125 38.207031 30.550781 38.054688 30.335938 L 37.410156 29.714844 C 36.785156 28.878906 36.007812 28.152344 35.167969 27.550781 C 34.476562 27.082031 32.96875 26.4375 32.691406 25.648438 L 32.648438 25.597656 C 33.121094 25.550781 33.679688 25.382812 34.132812 25.257812 C 34.867188 25.0625 35.535156 25.105469 36.289062 24.914062 L 37.324219 24.613281 L 37.324219 24.421875 C 36.933594 24.035156 36.65625 23.523438 36.246094 23.160156 C 35.148438 22.214844 33.941406 21.296875 32.691406 20.523438 C 32.023438 20.097656 31.160156 19.816406 30.449219 19.453125 C 30.191406 19.324219 29.757812 19.261719 29.609375 19.046875 C 29.21875 18.578125 29.003906 17.957031 28.726562 17.398438 L 26.957031 13.671875 C 26.570312 12.835938 26.332031 12.003906 25.859375 11.230469 C 23.640625 7.589844 21.226562 5.386719 17.519531 3.222656 C 16.722656 2.773438 15.777344 2.578125 14.769531 2.34375 L 13.152344 2.257812 C 12.804688 2.109375 12.460938 1.699219 12.160156 1.507812 C 10.933594 0.738281 7.765625 -0.933594 6.859375 1.269531 C 6.277344 2.660156 7.722656 4.03125 8.210938 4.738281 C 8.578125 5.230469 9.050781 5.785156 9.3125 6.34375 C 9.457031 6.707031 9.503906 7.09375 9.65625 7.476562 C 10 8.421875 10.324219 9.46875 10.777344 10.347656 C 11.015625 10.796875 11.269531 11.269531 11.574219 11.675781 C 11.746094 11.917969 12.046875 12.019531 12.109375 12.40625 C 11.808594 12.832031 11.789062 13.476562 11.617188 14.011719 C 10.839844 16.429688 11.140625 19.429688 12.242188 21.210938 C 12.585938 21.746094 13.398438 22.921875 14.503906 22.472656 C 15.472656 22.085938 15.257812 20.867188 15.535156 19.796875 C 15.601562 19.539062 15.558594 19.367188 15.6875 19.195312 L 15.6875 19.246094 L 16.570312 21.023438 C 17.238281 22.070312 18.402344 23.164062 19.371094 23.890625 C 19.890625 24.277344 20.296875 24.941406 20.945312 25.175781 L 20.945312 25.113281 L 20.902344 25.113281 C 20.773438 24.921875 20.578125 24.832031 20.40625 24.683594 C 20.019531 24.296875 19.585938 23.828125 19.285156 23.398438 C 18.382812 22.199219 17.585938 20.871094 16.875 19.5 C 16.527344 18.839844 16.226562 18.109375 15.945312 17.445312 C 15.816406 17.1875 15.816406 16.804688 15.601562 16.675781 C 15.277344 17.144531 14.804688 17.554688 14.566406 18.132812 C 14.15625 19.050781 14.113281 20.1875 13.964844 21.363281 C 13.878906 21.386719 13.914062 21.363281 13.878906 21.414062 C 13.1875 21.242188 12.949219 20.535156 12.691406 19.9375 C 12.046875 18.414062 11.9375 15.972656 12.5 14.21875 C 12.648438 13.769531 13.296875 12.355469 13.039062 11.925781 C 12.90625 11.519531 12.476562 11.285156 12.238281 10.964844 C 11.960938 10.554688 11.660156 10.042969 11.464844 9.59375 C 10.949219 8.394531 10.691406 7.066406 10.128906 5.867188 C 9.871094 5.308594 9.417969 4.730469 9.050781 4.21875 C 8.640625 3.640625 8.191406 3.234375 7.867188 2.546875 C 7.757812 2.308594 7.609375 1.925781 7.78125 1.667969 C 7.824219 1.496094 7.910156 1.429688 8.082031 1.390625 C 8.363281 1.152344 9.160156 1.457031 9.4375 1.582031 C 10.234375 1.90625 10.902344 2.203125 11.570312 2.652344 C 11.875 2.867188 12.199219 3.273438 12.585938 3.382812 L 13.039062 3.382812 C 13.726562 3.53125 14.503906 3.429688 15.148438 3.621094 C 16.289062 3.988281 17.324219 4.519531 18.253906 5.101562 C 21.074219 6.878906 23.402344 9.402344 24.976562 12.425781 C 25.234375 12.917969 25.339844 13.367188 25.578125 13.878906 C 26.03125 14.929688 26.589844 16 27.042969 17.027344 C 27.496094 18.035156 27.925781 19.0625 28.574219 19.898438 C 28.898438 20.347656 30.1875 20.582031 30.769531 20.820312 C 31.203125 21.011719 31.867188 21.183594 32.257812 21.417969 C 32.988281 21.867188 33.722656 22.382812 34.410156 22.875 C 34.757812 23.132812 35.835938 23.667969 35.898438 24.09375 Z M 13.925781 5.472656 C 13.628906 5.472656 13.332031 5.507812 13.042969 5.582031 L 13.042969 5.628906 L 13.085938 5.628906 C 13.257812 5.972656 13.5625 6.207031 13.777344 6.507812 L 14.273438 7.535156 L 14.316406 7.488281 C 14.617188 7.273438 14.765625 6.929688 14.765625 6.417969 C 14.636719 6.269531 14.617188 6.117188 14.507812 5.96875 C 14.378906 5.753906 14.101562 5.644531 13.925781 5.476562 Z M 13.925781 5.472656 " fill-opacity="1" fill-rule="evenodd"/></g></svg>