<svg xmlns="http://www.w3.org/2000/svg" xmlns:xlink="http://www.w3.org/1999/xlink" width="64" zoomAndPan="magnify" viewBox="0 0 48 48" height="64" preserveAspectRatio="xMidYMid meet" version="1.0"><defs><clipPath id="f69ade1f3b"><path d="M 1.183594 11.160156 L 46.734375 11.160156 L 46.734375 36 L 1.183594 36 Z M 1.183594 11.160156 " clip-rule="nonzero"/></clipPath></defs><g clip-path="url(#f69ade1f3b)"><path fill="#ffffff" d="M 24 11.160156 C 17.832031 11.160156 12.242188 12.453125 8.113281 14.605469 C 3.984375 16.761719 1.207031 19.867188 1.207031 23.507812 C 1.207031 27.144531 3.984375 30.25 8.113281 32.40625 C 12.242188 34.5625 17.832031 35.851562 24 35.851562 C 30.164062 35.851562 35.753906 34.5625 39.882812 32.40625 C 44.015625 30.25 46.792969 27.144531 46.792969 23.507812 C 46.792969 19.867188 44.015625 16.761719 39.882812 14.605469 C 35.753906 12.453125 30.164062 11.160156 24 11.160156 Z M 24 13.058594 C 29.898438 13.058594 35.230469 14.316406 39.003906 16.292969 C 42.78125 18.261719 44.894531 20.851562 44.894531 23.507812 C 44.894531 26.164062 42.78125 28.753906 39.003906 30.722656 C 35.230469 32.695312 29.898438 33.953125 24 33.953125 C 18.101562 33.953125 12.769531 32.695312 8.992188 30.722656 C 5.214844 28.753906 3.105469 26.164062 3.105469 23.507812 C 3.105469 20.851562 5.214844 18.261719 8.992188 16.292969 C 12.769531 14.316406 18.101562 13.058594 24 13.058594 Z M 21.632812 14.960938 L 19.25 26.355469 L 21.742188 26.355469 L 22.945312 20.65625 L 24.9375 20.65625 C 25.570312 20.65625 25.996094 20.761719 26.191406 20.972656 C 26.382812 21.183594 26.425781 21.585938 26.3125 22.160156 L 25.40625 26.355469 L 27.933594 26.355469 L 28.921875 21.820312 C 29.132812 20.730469 28.972656 19.933594 28.449219 19.449219 C 27.910156 18.957031 26.964844 18.757812 25.554688 18.757812 L 23.332031 18.757812 L 24.121094 14.960938 Z M 10.703125 18.757812 L 8.777344 29.207031 L 11.289062 29.207031 L 11.789062 26.355469 L 13.355469 26.355469 C 16.628906 26.355469 18.410156 25.597656 19.074219 22.792969 C 19.644531 20.375 18.183594 18.757812 15.765625 18.757812 Z M 30.648438 18.757812 L 28.722656 29.207031 L 31.234375 29.207031 L 31.734375 26.355469 L 33.300781 26.355469 C 36.570312 26.355469 38.351562 25.597656 39.015625 22.792969 C 39.589844 20.375 38.125 18.757812 35.710938 18.757812 Z M 12.863281 20.65625 L 14.816406 20.65625 C 16.441406 20.65625 16.785156 21.390625 16.699219 22.203125 C 16.480469 24.296875 15.171875 24.457031 13.769531 24.457031 L 12.144531 24.457031 Z M 32.804688 20.65625 L 34.761719 20.65625 C 36.386719 20.65625 36.726562 21.390625 36.640625 22.203125 C 36.421875 24.296875 35.117188 24.457031 33.714844 24.457031 L 32.085938 24.457031 Z M 32.804688 20.65625 " fill-opacity="1" fill-rule="nonzero"/></g></svg>