<svg xmlns="http://www.w3.org/2000/svg" xmlns:xlink="http://www.w3.org/1999/xlink" width="64" zoomAndPan="magnify" viewBox="0 0 48 48" height="64" preserveAspectRatio="xMidYMid meet" version="1.0"><defs><clipPath id="dce5dee642"><path d="M 4.875 9 L 43.078125 9 L 43.078125 46.46875 L 4.875 46.46875 Z M 4.875 9 " clip-rule="nonzero"/></clipPath><clipPath id="e839974542"><path d="M 4.925781 6.894531 L 43.066406 6.894531 L 43.066406 31.554688 L 4.925781 31.554688 Z M 4.925781 6.894531 " clip-rule="nonzero"/></clipPath><clipPath id="f4a9fe4108"><path d="M 18 0 L 35 0 L 35 36 L 18 36 Z M 18 0 " clip-rule="nonzero"/></clipPath><clipPath id="6c69b95338"><path d="M 14.863281 3.929688 L 32.789062 -0.0664062 L 39.820312 31.488281 L 21.894531 35.484375 Z M 14.863281 3.929688 " clip-rule="nonzero"/></clipPath><clipPath id="df49f0daa7"><path d="M 14.863281 3.929688 L 32.789062 -0.0664062 L 39.820312 31.488281 L 21.894531 35.484375 Z M 14.863281 3.929688 " clip-rule="nonzero"/></clipPath><clipPath id="d3e0a181dc"><path d="M 14.863281 3.929688 L 32.789062 -0.0664062 L 39.820312 31.488281 L 21.894531 35.484375 Z M 14.863281 3.929688 " clip-rule="nonzero"/></clipPath></defs><g clip-path="url(#dce5dee642)"><path fill="#ffffff" d="M 43.078125 9.164062 L 24.164062 46.195312 L 4.917969 9.007812 C 15.464844 15 26.445312 19.8125 43.078125 9.164062 Z M 43.078125 9.164062 " fill-opacity="1" fill-rule="nonzero"/></g><g clip-path="url(#e839974542)"><path fill="#ffffff" d="M 25.445312 30.867188 L 42.625 9.980469 C 43.917969 8.40625 42.136719 6.1875 40.320312 7.109375 L 24.847656 14.96875 C 24.3125 15.242188 23.679688 15.242188 23.144531 14.96875 L 7.667969 7.109375 C 5.855469 6.1875 4.074219 8.40625 5.367188 9.980469 L 22.542969 30.867188 C 23.296875 31.78125 24.695312 31.78125 25.445312 30.867188 " fill-opacity="1" fill-rule="nonzero"/></g><g clip-path="url(#f4a9fe4108)"><g clip-path="url(#6c69b95338)"><g clip-path="url(#df49f0daa7)"><g clip-path="url(#d3e0a181dc)"><path fill="#000000" d="M 18.398438 19.699219 C 18.398438 19.699219 24.363281 18.371094 24.363281 18.371094 C 24.363281 18.371094 21.914062 35.472656 21.914062 35.472656 C 21.914062 35.472656 34.96875 9.796875 34.96875 9.796875 C 34.96875 9.796875 27.011719 11.542969 27.011719 11.542969 C 27.011719 11.542969 28.796875 0.820312 28.796875 0.820312 C 28.796875 0.820312 18.859375 3.035156 18.859375 3.035156 C 18.859375 3.035156 18.398438 19.699219 18.398438 19.699219 Z M 18.398438 19.699219 " fill-opacity="1" fill-rule="nonzero"/></g></g></g></g></svg>